<svg xmlns="http://www.w3.org/2000/svg" viewBox="0 0 100 100">
  <rect width="100" height="100" rx="10" fill="#875a7b"/>
  <g fill="white">
    <!-- Clipboard -->
    <rect x="25" y="15" width="50" height="70" rx="4" fill="none" stroke="white" stroke-width="3"/>
    <rect x="35" y="10" width="30" height="10" rx="2" fill="white"/>
    
    <!-- Checkmarks/Stars -->
    <circle cx="35" cy="35" r="5" fill="none" stroke="white" stroke-width="2"/>
    <polyline points="32,35 34,38 40,32" fill="none" stroke="white" stroke-width="2"/>
    
    <circle cx="35" cy="50" r="5" fill="none" stroke="white" stroke-width="2"/>
    <polyline points="32,50 34,53 40,47" fill="none" stroke="white" stroke-width="2"/>
    
    <circle cx="35" cy="65" r="5" fill="none" stroke="white" stroke-width="2"/>
    
    <!-- Lines -->
    <rect x="45" y="33" width="25" height="4" rx="2"/>
    <rect x="45" y="48" width="20" height="4" rx="2"/>
    <rect x="45" y="63" width="22" height="4" rx="2"/>
    
    <!-- Star rating indicator -->
    <path d="M60,75 l2.5,5 5.5,0.8 -4,3.9 0.9,5.5 -4.9,-2.6 -4.9,2.6 0.9,-5.5 -4,-3.9 5.5,-0.8 z" 
          fill="#f39c12" stroke="#f39c12"/>
  </g>
</svg>
